<svg xmlns="http://www.w3.org/2000/svg" xmlns:xlink="http://www.w3.org/1999/xlink" width="1080" zoomAndPan="magnify" viewBox="0 0 810 809.999993" height="1080" preserveAspectRatio="xMidYMid meet" version="1.0"><defs><g/></defs><g fill="#fbbf24" fill-opacity="1"><g transform="translate(39.617356, 589.87499)"><g><path d="M 190.625 -432.640625 L 128.4375 -432.640625 L 128.4375 -271.75 C 147.820312 -272.65625 162.804688 -275.019531 173.390625 -278.84375 C 183.984375 -282.675781 193.109375 -289.4375 200.765625 -299.125 C 208.429688 -308.8125 217.445312 -322.445312 227.8125 -340.03125 L 227.8125 -176.4375 C 217.445312 -194.007812 208.429688 -207.640625 200.765625 -217.328125 C 193.109375 -227.023438 183.984375 -233.898438 173.390625 -237.953125 C 162.804688 -242.003906 147.820312 -244.257812 128.4375 -244.71875 L 128.4375 -70.984375 C 128.4375 -45.296875 132.039062 -27.71875 139.25 -18.25 C 146.46875 -8.789062 156.382812 -2.707031 169 0 L 6.765625 0 C 19.378906 -2.707031 29.289062 -8.789062 36.5 -18.25 C 43.707031 -27.71875 47.3125 -45.296875 47.3125 -70.984375 L 47.3125 -388.703125 C 47.3125 -414.390625 43.707031 -431.960938 36.5 -441.421875 C 29.289062 -450.890625 19.378906 -456.976562 6.765625 -459.6875 L 320.421875 -459.6875 L 333.9375 -350.171875 C 322.675781 -369.992188 308.929688 -385.875 292.703125 -397.8125 C 276.484375 -409.757812 259.582031 -418.550781 242 -424.1875 C 224.425781 -429.820312 207.300781 -432.640625 190.625 -432.640625 Z M 190.625 -432.640625 "/></g></g></g><g fill="#fbbf24" fill-opacity="1"><g transform="translate(346.519613, 589.87499)"><g><path d="M 417.09375 -459.6875 C 404.476562 -456.976562 394.5625 -450.890625 387.34375 -441.421875 C 380.132812 -431.960938 376.53125 -414.390625 376.53125 -388.703125 L 376.53125 0 L 349.484375 0 L 85.859375 -375.859375 L 85.859375 -70.984375 C 85.859375 -45.296875 89.460938 -27.71875 96.671875 -18.25 C 103.878906 -8.789062 113.789062 -2.707031 126.40625 0 L 18.25 0 C 30.875 -2.707031 40.789062 -8.789062 48 -18.25 C 55.207031 -27.71875 58.8125 -45.296875 58.8125 -70.984375 L 58.8125 -413.71875 C 46.644531 -429.488281 36.390625 -440.523438 28.046875 -446.828125 C 19.710938 -453.140625 12.617188 -457.425781 6.765625 -459.6875 L 126.40625 -459.6875 L 349.484375 -140.609375 L 349.484375 -388.703125 C 349.484375 -414.390625 345.878906 -431.960938 338.671875 -441.421875 C 331.460938 -450.890625 321.550781 -456.976562 308.9375 -459.6875 Z M 417.09375 -459.6875 "/></g></g></g></svg>